# xmcd
#
# Track frame offsets: 
#        150
#        15410
#        35463
#        50843
#        64715
#        78504
#        95475
#        109444
#
# Disc length: 1644 seconds
#
# Revision: 0
# Processed by: cddbd v1.5.2PL0 Copyright (c) Steve Scherf et al.
# Submitted via: ExactAudioCopyFreeDBPlugin 1.0
#
DISCID=65066a08
DTITLE=DJ Benity - Baba Darabuka
DYEAR=2014
DGENRE=DJ.s
TTITLE0=Origjinal
TTITLE1=Vec edhe ka njo (FT.Mimoza Shkodra)
TTITLE2=Dance wit me
TTITLE3=Oh Ouu
TTITLE4=Origjinal Spirit
TTITLE5=Wirusi
TTITLE6=Ska rendesi (FT.Dafina Dauti)
TTITLE7=Solo
EXTD=
EXTT0=
EXTT1=
EXTT2=
EXTT3=
EXTT4=
EXTT5=
EXTT6=
EXTT7=
PLAYORDER=
